<svg xmlns="http://www.w3.org/2000/svg" width="42" height="42" viewBox="0 0 42 42">
    <g fill="none" fill-rule="evenodd">
        <path fill="#27255F" d="M35.7 7.425H22.064a2.063 2.063 0 1 0 0 4.125h13.634c.478 0 .768.264.899.412.124.158.339.488.257.958l-3.128 14.99a1.16 1.16 0 0 1-1.148.965H19.211a1.161 1.161 0 0 1-1.148-.965L13.501 1.683A2.045 2.045 0 0 0 11.489 0H2.063a2.066 2.066 0 0 0-2 2.576c.225.936 1.135 1.549 2.1 1.549h7.64l4.193 24.487A5.294 5.294 0 0 0 19.21 33h13.368a5.29 5.29 0 0 0 5.216-4.392l3.128-14.995c.553-3.235-1.94-6.188-5.224-6.188"/>
        <path fill="#F05B40" d="M30.077 20C31.139 20 32 18.88 32 17.5s-.86-2.5-1.923-2.5h-6.154C22.861 15 22 16.12 22 17.5s.86 2.5 1.923 2.5h6.154z"/>
        <path fill="#F89D1D" d="M20 35a3 3 0 1 0 0 6 3 3 0 0 0 0-6M31 35a3 3 0 1 0 0 6 3 3 0 0 0 0-6"/>
        <path fill="#00B5BC" d="M31 24.5c0-1.38-.895-2.5-2-2.5h-4c-1.105 0-2 1.12-2 2.5s.895 2.5 2 2.5h4c1.105 0 2-1.12 2-2.5"/>
    </g>
</svg>
