<svg xmlns="http://www.w3.org/2000/svg" width="42" height="42" viewBox="0 0 42 42">
    <g fill="none" fill-rule="evenodd">
        <path fill="#F89D1D" d="M35.507 13.789h-4.839c3.315-13.26-5.8-13.26-5.8-13.26H22.57a3.82 3.82 0 0 0-3.794 4.301l.116.954a3.888 3.888 0 0 1-.554 2.552l-2.77 3.987a2.075 2.075 0 0 0 3.534 2.173l3.493-5.166a4.186 4.186 0 0 0 .615-2.17c0-.174-.008-.34-.033-.515l-.117-.919a.936.936 0 0 1 .928-1.052h.879c.008 0 1.036.106 1.64.877.447.572 1.343 2.412.14 7.234l-1.283 5.147h9.803a1.892 1.892 0 0 1 1.823 2.403l-3.29 11.95a1.909 1.909 0 0 1-1.832 1.393H13.813c-1.208 0-2.273.99-2.2 2.196.032.522.255.996.6 1.342.374.372.896.604 1.467.604h18.39a5.764 5.764 0 0 0 5.567-4.242l3.447-12.472c1.012-3.68-1.756-7.317-5.577-7.317"/>
        <path fill="#00B5BC" d="M10.78 35.234a.926.926 0 0 1-.928.928H5.08a.926.926 0 0 1-.928-.928V21.346c0-.514.415-.929.928-.929h4.773c.514 0 .929.415.929.929v13.888zm1.5-18.959H2.65a2.645 2.645 0 0 0-2.642 2.643v18.744a2.645 2.645 0 0 0 2.643 2.644h9.63a2.646 2.646 0 0 0 2.643-2.644V18.918a2.645 2.645 0 0 0-2.644-2.643z"/>
    </g>
</svg>
